<?xml version="1.0" encoding="utf-8"?>
<!-- Generator: Adobe Illustrator 21.0.0, SVG Export Plug-In . SVG Version: 6.00 Build 0)  -->
<svg version="1.1" id="Layer_1" xmlns="http://www.w3.org/2000/svg" xmlns:xlink="http://www.w3.org/1999/xlink" x="0px" y="0px"
	 width="300px" height="250px" viewBox="0 0 300 250" style="enable-background:new 0 0 300 250;" xml:space="preserve">
<style type="text/css">
	.st0{fill:#3B84ED;}
</style>
<path class="st0" d="M-87-75v367h458V-75H-87z M244.3,160C244.3,160,244.3,160.1,244.3,160c0,18.2-14.7,32.9-32.9,32.9H68
	c-3.2,0-6.3-0.5-9.4-1.4l-0.5-0.1l20.7-15.1C65.6,172,55.7,159.7,55.7,145V89.9c0-18.2,15.1-32.9,33.3-32.9h143.4
	c3.1-0.1,6.3,0.3,9.3,1.1l-20.8,15.1l0.2,0h0.1c13.8,4.4,23.1,17.2,23.1,31.7V160z"/>
<path class="st0" d="M88,89.9V145c0,0.5,0.6,0.7,1,0.7h32.2l-20.6,15h110.7c0.5,0,0.6-0.2,0.6-0.7v-55.1c0-0.5-0.1-1.2-0.6-1.2
	h-32.9l20.7-15H89C88.5,88.7,88,89.4,88,89.9z"/>
</svg>
